# xmcd
#
# Track frame offsets: 
#        150
#        9364
#        20431
#        31519
#        43758
#        55419
#        67546
#        79476
#        89752
#        98365
#        107531
#        118117
#        130397
#        140789
#        152889
#        166187
#        177894
#        189060
#        201686
#        214917
#
# Disc length: 3032 seconds
#
# Revision: 0
# Processed by: cddbd v1.5.2PL0 Copyright (c) Steve Scherf et al.
# Submitted via: ExactAudioCopy v0.99pb5
#
DISCID=0d0bd614
DTITLE=Johnny Winter - Beginnings 1960-1967
DYEAR=2010
DGENRE=Blues
TTITLE0=Reeling and Rocking
TTITLE1=Can't Believe You Wanna Leave
TTITLE2=Gangster of Love
TTITLE3=Eternally
TTITLE4=You'll Be the Death of Me
TTITLE5=Leave My Woman Alone
TTITLE6=Kiss Tomorrow Goodbye
TTITLE7=Hello My Lover
TTITLE8=I Had to Cry
TTITLE9=I Won't Believe It
TTITLE10=Gone for Bad
TTITLE11=Bad News
TTITLE12=Out of Sight
TTITLE13=Parchman Farm
TTITLE14=Tramp
TTITLE15=Don't Hide It
TTITLE16=Avocado Green
TTITLE17=Easy Lovin' Girl
TTITLE18=Birds Can't Row Boats
TTITLE19=Leavin' Blues
EXTD=
EXTT0=
EXTT1=
EXTT2=
EXTT3=
EXTT4=
EXTT5=
EXTT6=
EXTT7=
EXTT8=
EXTT9=
EXTT10=
EXTT11=
EXTT12=
EXTT13=
EXTT14=
EXTT15=
EXTT16=
EXTT17=
EXTT18=
EXTT19=
PLAYORDER=
